<?xml version="1.0" standalone="no"?>
<!DOCTYPE svg PUBLIC "-//W3C//DTD SVG 20010904//EN"
 "http://www.w3.org/TR/2001/REC-SVG-20010904/DTD/svg10.dtd">
<svg version="1.0" xmlns="http://www.w3.org/2000/svg"
 width="970.000000pt" height="970.000000pt" viewBox="0 0 970.000000 970.000000"
 preserveAspectRatio="xMidYMid meet">
<metadata>
Created by potrace 1.14, written by Peter Selinger 2001-2017
</metadata>
<g transform="translate(0.000000,970.000000) scale(0.100000,-0.100000)"
fill="#000000" stroke="none">
<path d="M323 9651 c-63 -50 -232 -232 -261 -281 l-23 -39 152 -243 c204 -326
324 -514 468 -733 47 -71 88 -134 91 -140 6 -12 42 -66 53 -80 13 -17 267
-398 267 -402 0 -2 21 -34 48 -71 26 -38 52 -76 57 -85 6 -9 92 -143 193 -297
l182 -280 -39 -63 c-108 -174 -237 -426 -319 -623 -101 -242 -159 -434 -211
-694 -28 -143 -33 -170 -46 -275 -3 -27 -8 -59 -10 -70 -11 -54 -20 -241 -20
-430 0 -220 7 -331 30 -514 8 -62 45 -272 51 -293 3 -10 7 -30 10 -45 57 -324
260 -832 483 -1206 l71 -119 -427 -636 c-234 -351 -434 -648 -444 -662 -9 -14
-60 -90 -111 -170 -52 -80 -130 -199 -173 -265 -43 -66 -92 -142 -110 -170
-17 -27 -52 -81 -77 -120 -166 -259 -168 -263 -158 -290 14 -37 48 -84 105
-147 28 -31 66 -74 87 -96 20 -23 57 -57 82 -76 l46 -35 103 66 c140 90 1200
795 1212 806 17 15 978 648 1009 664 15 8 42 -5 145 -69 157 -99 427 -233 589
-293 185 -69 465 -146 616 -169 21 -4 41 -8 45 -10 3 -2 29 -7 56 -10 28 -3
60 -8 72 -10 20 -4 90 -13 168 -21 143 -15 255 -20 470 -20 219 0 458 10 474
19 3 2 40 7 80 10 41 4 77 9 80 11 4 1 29 6 56 9 58 6 76 10 205 37 52 11 106
23 120 25 47 10 196 53 305 90 247 82 543 228 763 373 l62 42 207 -137 c115
-75 295 -193 401 -263 107 -69 431 -284 720 -476 290 -193 639 -424 775 -513
l249 -163 37 25 c64 45 120 111 249 295 l42 61 -151 236 c-368 578 -656 1010
-874 1314 -93 129 -181 253 -197 275 -42 61 -237 328 -252 347 -8 9 -30 40
-50 69 -35 52 -35 53 -17 78 71 102 227 389 296 546 93 210 220 608 251 780 3
17 11 62 19 100 7 39 16 93 20 120 3 28 10 79 15 115 20 146 24 227 25 470 0
221 -7 377 -20 470 -2 14 -11 76 -20 139 -9 62 -23 143 -31 180 -8 36 -19 86
-24 111 -5 25 -17 72 -26 105 -9 33 -20 74 -24 90 -8 35 -86 271 -99 300 -4
11 -30 72 -56 135 -68 164 -172 364 -283 544 l-61 99 40 56 c23 31 100 140
172 243 73 104 203 288 291 410 184 259 476 697 701 1053 87 138 168 266 180
285 13 19 58 91 100 159 l77 123 -24 27 c-14 14 -49 58 -78 96 -30 39 -63 77
-74 84 -12 8 -51 46 -87 84 l-65 70 -75 -48 c-41 -26 -96 -62 -124 -80 -490
-313 -1138 -746 -1625 -1085 -8 -6 -131 -89 -272 -185 l-257 -175 -68 48
c-409 288 -851 472 -1363 566 -74 14 -161 28 -193 31 -32 4 -68 8 -80 11 -92
18 -574 25 -752 11 -134 -10 -344 -40 -445 -62 -14 -3 -45 -10 -70 -14 -207
-39 -539 -150 -764 -256 -157 -74 -466 -259 -537 -322 -15 -12 -33 -3 -160 83
-146 98 -269 182 -414 283 -44 30 -114 78 -155 107 -41 28 -147 102 -235 164
-167 117 -839 566 -1030 687 -60 38 -167 106 -237 151 l-127 81 -48 -38z
m1504 -1705 c117 -78 252 -167 300 -198 48 -31 195 -132 325 -225 659 -468
1192 -798 1518 -939 104 -45 264 -100 316 -110 22 -3 47 -11 56 -16 19 -9 175
-43 248 -53 97 -14 425 -14 511 0 123 19 195 34 264 56 193 60 261 82 270 88
6 3 15 6 20 7 34 7 402 186 515 251 210 121 333 198 720 456 257 171 607 412
620 426 3 4 25 20 50 36 25 16 47 32 50 35 3 4 28 21 55 39 91 61 289 199 360
252 60 45 67 48 50 23 -10 -16 -37 -58 -61 -94 -23 -36 -117 -186 -209 -335
-93 -148 -207 -326 -255 -395 -736 -1062 -1017 -1579 -1121 -2066 -21 -96 -24
-135 -23 -324 1 -202 5 -247 38 -416 11 -53 53 -182 108 -329 89 -235 187
-428 345 -680 158 -251 169 -268 412 -635 130 -195 238 -359 240 -365 2 -5 21
-33 43 -62 21 -29 38 -55 38 -58 0 -3 8 -18 19 -33 40 -58 199 -298 251 -380
30 -48 85 -132 122 -186 37 -55 66 -101 64 -103 -2 -2 -39 20 -83 50 -44 29
-86 56 -94 60 -38 17 -268 173 -373 252 -183 139 -519 373 -871 609 -202 136
-241 160 -478 300 -148 87 -467 238 -612 290 -116 41 -349 104 -437 118 -134
21 -475 17 -613 -7 -100 -17 -341 -85 -460 -129 -95 -35 -405 -191 -539 -271
-60 -36 -113 -65 -118 -65 -4 0 -8 -4 -8 -9 0 -5 -8 -11 -17 -13 -22 -6 -517
-338 -762 -511 -223 -157 -412 -293 -428 -306 -9 -9 -458 -308 -545 -364 -23
-14 -12 7 53 110 105 164 148 227 229 338 37 50 69 95 71 100 2 6 141 215 307
465 167 250 332 499 365 553 34 54 83 131 109 172 87 138 205 350 275 495 146
300 210 490 253 750 22 139 21 382 -3 505 -9 44 -19 94 -22 110 -14 72 -50
190 -97 315 -46 125 -192 435 -254 540 -15 25 -36 61 -47 80 -32 57 -150 249
-203 330 -27 41 -53 83 -59 93 -5 10 -181 275 -389 590 -307 463 -516 765
-640 926 -15 19 -21 23 231 -143z"/>
</g>
</svg>
